# AST/ASF file generated using VICON BodyLanguage
# -----------------------------------------------
:version 1.10
:name VICON
:units
  mass 1.0
  length 0.45
  angle deg
:documentation
   .ast/.asf automatically generated from VICON data using
   VICON BodyBuilder and BodyLanguage model FoxedUp or BRILLIANT.MOD
:root
   order TX TY TZ RX RY RZ
   axis XYZ
   position 0 0 0  
   orientation 0 0 0 
:bonedata
  begin
     id 1 
     name lhipjoint
     direction 0.61886 -0.69539 0.365302 
     length 2.20474 
     axis 0 0 0  XYZ
  end
  begin
     id 2 
     name lfemur
     direction 0.34202 -0.939693 0  
     length 6.65149  
     axis 0 0 20  XYZ
    dof rx ry rz
    limits (-160.0 20.0)
           (-70.0 70.0)
           (-60.0 70.0)
  end
  begin
     id 3 
     name ltibia
     direction 0.34202 -0.939693 0   
     length 6.35814   
     axis 0 0 20   XYZ
    dof rx
    limits (-10.0 170.0)
  end
  begin
     id 4 
     name lfoot
     direction 0.101224 -0.278109 0.955201   
     length 2.18766   
     axis -90 7.62852e-016 20   XYZ
    dof rx rz
    limits (-45.0 90.0)
           (-70.0 20.0)
  end
  begin
     id 5 
     name ltoes
     direction 1.53524e-011 -4.21877e-011 1   
     length 1.09206   
     axis -90 7.62852e-016 20   XYZ
    dof rx
    limits (-90.0 20.0)
  end
  begin
     id 6 
     name rhipjoint
     direction -0.600207 -0.708087 0.371972   
     length 2.1652  
     axis 0 0 0  XYZ 
  end
  begin
     id 7 
     name rfemur
     direction -0.34202 -0.939693 0   
     length 6.54691   
     axis 0 0 -20   XYZ
    dof rx ry rz
    limits (-160.0 20.0)
           (-70.0 70.0)
           (-70.0 60.0)
  end
  begin
     id 8 
     name rtibia
     direction -0.34202 -0.939693 0   
     length 6.37474   
     axis 0 0 -20   XYZ
    dof rx
    limits (-10.0 170.0)
 end
 begin
     id 9 
     name rfoot
     direction -0.111266 -0.3057 0.945604   
     length 2.00903  
     axis -90 -7.62852e-016 -20   XYZ
    dof rx rz
    limits (-45.0 90.0)
           (-20.0 70.0)
  end
  begin
     id 10 
     name rtoes
     direction -1.5362e-011 -4.21913e-011 1   
     length 1.00221   
     axis -90 -7.62852e-016 -20   XYZ
    dof rx
    limits (-90.0 20.0)
  end
  begin
     id 11 
     name lowerback
     direction -0.0224561 0.999731 -0.00577314   
     length 2.10409   
     axis 0 0 0   XYZ
    dof rx ry rz
    limits (-20.0 45.0)
           (-30.0 30.0)
           (-30.0 30.0)
  end
  begin
     id 12 
     name upperback
     direction 0.0213126 0.999185 -0.0342817   
     length 2.09783   
     axis 0 0 0   XYZ
    dof rx ry rz
    limits (-20.0 45.0)
           (-30.0 30.0)
           (-30.0 30.0)
  end
  begin
     id 13 
     name thorax
     direction 0.0312356 0.999036 -0.0308451   
     length 2.09788   
     axis 0 0 0   XYZ
    dof rx ry rz
    limits (-20.0 45.0)
           (-30.0 30.0)
           (-30.0 30.0)
  end
  begin
     id 14 
     name lowerneck
     direction -0.0114419 0.996481 0.0830329   
     length 1.38575   
     axis 0 0 0   XYZ
    dof rx ry rz
    limits (-20.0 45.0)
           (-30.0 30.0)
           (-30.0 30.0)
  end
  begin
     id 15 
     name upperneck
     direction -0.0075675 0.996187 -0.0869092   
     length 1.39401   
     axis 0 0 0   XYZ
    dof rx ry rz
    limits (-20.0 45.0)
           (-30.0 30.0)
           (-30.0 30.0)
  end
  begin
     id 16
     name head
     direction -0.00222073 0.999264 -0.0382974  
     length 1.3964  
     axis 0 0 0   XYZ
    dof rx ry rz
    limits (-20.0 45.0)
           (-30.0 30.0)
           (-30.0 30.0)
  end
  begin
     id 17 
     name lclavicle
     direction 0.965962 0.222138 0.132556  
     length 2.81514  
     axis 0 0 0   XYZ
    dof ry rz
    limits (-20.0 10.0)
           (0.0 20.0)
  end
  begin
     id 18 
     name lhumerus
     direction 1 -4.48972e-011 7.03471e-018   
     length 4.47366   
     axis 180 -30 -90   XYZ
    dof rx ry rz
    limits (-60.0 90.0)
           (-90.0 90.0)
           (-90.0 90.0)
  end
  begin
     id 19
     name lradius
     direction 1 -4.48951e-011 -6.22192e-028   
     length 3.19948   
     axis 180 -30 -90   XYZ
    dof rx
    limits (-10.0 170.0)
  end
  begin
     id 20
     name lwrist
     direction 1 -4.48967e-011 -1.24264e-027   
     length 1.59974   
     axis 1.40095e-015 90 90   XYZ
    dof ry
    limits (-180.0 0.0)
 end
  begin
     id 21 
     name lhand
     direction 1 -4.4897e-011 -2.48528e-027   
     length 0.492667   
     axis 1.58582e-015 90 90   XYZ
    dof rx rz
    limits (-90.0 90.0)
           (-45.0 45.0)
  end
  begin
     id 22 
     name lfingers
     direction 1 -4.48996e-011 -4.97056e-027   
     length 0.397201   
     axis 3.17164e-015 90 90   XYZ
    dof rx
    limits (0.0 90.0)
  end
  begin
     id 23
     name lthumb
     direction 0.707107 -6.34981e-011 0.707107   
     length 0.570303   
     axis -90 45 2.85299e-015   XYZ
    dof rx rz
    limits (-45.0 45.0)
           (-45.0 45.0)
  end
  begin
     id 24 
     name rclavicle
     direction -0.961164 0.229034 0.153972   
     length 3.09348  
     axis 0 0 0   XYZ 
    dof ry rz
    limits (-10.0 20.0)
           (-20.0 0.0)
  end
  begin
     id 25 
     name rhumerus
     direction -1 -4.48971e-011 -9.06263e-028  
     length 4.3269   
     axis 180 30 90   XYZ
    dof rx ry rz
    limits (-90.0 60.0)
           (-90.0 90.0)
           (-90.0 90.0)
  end
  begin
     id 26 
     name rradius
     direction -1 -4.48953e-011 1.44659e-027   
     length 3.1896   
     axis 180 30 90   XYZ
    dof rx
    limits (-10.0 170.0)
  end
  begin
     id 27 
     name rwrist
     direction -1 -4.48988e-011 -1.24264e-027   
     length 1.5948   
     axis 1.40095e-015 -90 -90   XYZ
    dof ry
    limits (-180.0 0.0)
  end
  begin
     id 28
     name rhand
     direction -1 -4.49033e-011 -2.48528e-027   
     length 0.464496   
     axis 1.58582e-015 -90 -90   XYZ
    dof rx rz
    limits (-90.0 90.0)
           (-45.0 45.0)
  end
  begin
     id 29
     name rfingers
     direction -1 -4.48905e-011 -4.97056e-027   
     length 0.374489   
     axis 3.17164e-015 -90 -90   XYZ
    dof rx
    limits (0.0 90.0)
  end
  begin
     id 30
     name rthumb
     direction -0.707107 -6.34909e-011 0.707107   
     length 0.537693   
     axis -90 -45 -2.85299e-015   XYZ
    dof rx rz
    limits (-45.0 45.0)
           (-45.0 45.0)
  end
:hierarchy
  begin
    root lhipjoint rhipjoint lowerback
    lhipjoint lfemur
    lfemur ltibia
    ltibia lfoot
    lfoot ltoes
    rhipjoint rfemur
    rfemur rtibia
    rtibia rfoot
    rfoot rtoes
    lowerback upperback
    upperback thorax
    thorax lowerneck lclavicle rclavicle
    lowerneck upperneck
    upperneck head
    lclavicle lhumerus
    lhumerus lradius
    lradius lwrist
    lwrist lhand lthumb
    lhand lfingers
    rclavicle rhumerus
    rhumerus rradius
    rradius rwrist
    rwrist rhand rthumb
    rhand rfingers
  end

#!OML:ASF G:\acrobat\cartwheel_test 2\Patient 1\Session 2\acrobat4.ASF
:FULLY-SPECIFIED
:DEGREES
1669
root 2.51096 15.0662 7.2332 13.1281 38.278 725.693
lowerback -0.105981 0.0166677 -5.63205
upperback -1.83772 0.0288912 3.15845
thorax -1.84775 0.137709 6.45626
lowerneck -14.3532 -6.39256 -8.42195
upperneck 14.9737 -6.74536 -0.464968
head 7.24389 -3.74576 0.490865
rclavicle -6.74874e-014 -2.22639e-014
rhumerus -31.4601 3.8688 -70.724
rradius 36.2944
rwrist 1.6266
rhand -19.749 -751.239
rfingers 7.12502
rthumb 6.58212 -61.1168
lclavicle -6.74874e-014 -2.22639e-014
lhumerus 22.8628 36.7079 -2.85689
lradius 44.5736
lwrist 25.753
lhand -50.936 -350.892
lfingers 7.12502
lthumb -23.4872 -322.306
rfemur -22.7799 6.41387 19.5394
rtibia 49.6575
rfoot -26.4905 -19.2908
rtoes 4.42811
lfemur -17.242 1.78096 -29.1456
ltibia 42.7373
lfoot 149.913 -169.178
ltoes 7.57177
1670
root 2.51289 15.0706 7.23965 13.1335 38.3859 725.656
lowerback -0.102288 0.0164664 -5.62378
upperback -1.82926 0.0276405 3.11514
thorax -1.84063 0.135923 6.40561
lowerneck -14.3285 -6.3668 -8.2241
upperneck 14.8695 -6.73889 -0.572439
head 7.19353 -3.73939 0.428877
rclavicle 4.2043e-014 3.49861e-014
rhumerus -31.4102 3.80956 -70.5952
rradius 36.3592
rwrist 1.6399
rhand -19.6939 -751.343
rfingers 7.12502
rthumb 6.63529 -61.219
lclavicle 4.2043e-014 3.49861e-014
lhumerus 22.9208 36.634 -3.00422
lradius 44.5903
lwrist 25.8424
lhand -50.956 -350.563
lfingers 7.12502
lthumb -23.5064 -321.979
rfemur -22.7906 6.29299 19.565
rtibia 49.6511
rfoot -26.2717 -19.1983
rtoes 3.7075
lfemur -17.2742 1.65051 -29.0649
ltibia 42.7763
lfoot 149.711 -169.466
ltoes 8.94125
1671
root 2.51554 15.0735 7.24673 13.1707 38.5309 725.613
lowerback -0.29176 -0.0968965 -5.82322
upperback -1.68004 -0.113367 3.27903
thorax -1.55834 0.0550133 6.69472
lowerneck -14.4719 -6.26094 -8.1038
upperneck 14.6251 -6.57336 -0.782786
head 7.12038 -3.66737 0.360578
rclavicle -3.29983e-014 -1.11319e-014
rhumerus -30.9814 4.1367 -70.2913
rradius 36.3647
rwrist 1.66474
rhand -19.574 -751.443
rfingers 7.12502
rthumb 6.75102 -61.3152
lclavicle -3.29983e-014 -1.11319e-014
lhumerus 22.7408 36.8984 -2.94194
lradius 44.5446
lwrist 25.4985
lhand -50.9538 -351.061
lfingers 7.12502
lthumb -23.5043 -322.477
rfemur -22.8242 6.23167 19.6264
rtibia 49.6788
rfoot -26.1795 -19.3057
rtoes 2.83709
lfemur -17.333 1.54397 -28.9765
ltibia 42.7795
lfoot 149.718 -169.675
ltoes 9.8736
1672
root 2.51586 15.0763 7.25811 13.1989 38.7225 725.708
lowerback -0.74271 -0.380703 -6.63384
upperback -1.20723 -0.464356 3.78407
thorax -0.75168 -0.15617 7.69903
lowerneck -14.9882 -6.08192 -8.24305
upperneck 14.254 -6.20002 -1.08156
head 7.07033 -3.51444 0.317759
rclavicle -2.14687e-014 9.54166e-015
rhumerus -29.855 5.05932 -69.6724
rradius 36.2952
rwrist 1.58977
rhand -19.4044 -751.552
rfingers 7.12502
rthumb 6.91483 -61.4189
lclavicle -2.14687e-014 9.54166e-015
lhumerus 21.5349 37.5855 -3.25423
lradius 44.575
lwrist 25.0862
lhand -50.7949 -352.171
lfingers 7.12502
lthumb -23.3519 -323.567
rfemur -22.7368 6.21749 19.6074
rtibia 49.7266
rfoot -25.8233 -19.7871
rtoes 0.340278
lfemur -17.2606 1.47293 -28.966
ltibia 42.771
lfoot 149.641 -170.023
ltoes 10.7533
1673
root 2.51647 15.0796 7.26986 13.3027 38.914 725.911
lowerback -0.688453 -0.37505 -6.76029
upperback -1.18517 -0.460928 3.69174
thorax -0.75993 -0.154593 7.67381
lowerneck -15.0343 -6.15047 -8.39686
upperneck 14.2897 -6.28769 -0.883472
head 7.10454 -3.54791 0.393695
rclavicle -3.26007e-014 1.59028e-014
rhumerus -29.8926 4.72479 -69.4658
rradius 36.2575
rwrist 1.73436
rhand -19.3719 -751.715
rfingers 7.12502
rthumb 6.94619 -61.5812
lclavicle -3.26007e-014 1.59028e-014
lhumerus 21.9509 37.6888 -2.97733
lradius 44.4425
lwrist 24.5978
lhand -50.7143 -352.095
lfingers 7.12502
lthumb -23.2745 -323.482
rfemur -22.6773 6.08811 19.4758
rtibia 49.7718
rfoot -25.2087 -20.2475
rtoes -2.92256
lfemur -17.208 1.36084 -29.0527
ltibia 42.7882
lfoot 149.655 -170.211
ltoes 11.0731
